<svg width="21" height="21" viewBox="0 0 21 21" fill="none" xmlns="http://www.w3.org/2000/svg">
<path fill-rule="evenodd" clip-rule="evenodd" d="M8.01357 7.10814C4.10444 11.0177 0.873375 14.2751 0.833378 14.3471C0.793456 14.419 0.573547 15.7838 0.344699 17.3799C-0.105574 20.521 -0.105877 20.5398 0.292127 20.8531C0.396286 20.9351 0.587713 21.0012 0.717477 21C0.847241 20.9988 2.22881 20.8145 3.78757 20.5903L6.6217 20.1829L13.7628 13.0295C21.5087 5.27018 21.1718 5.64481 20.8885 5.10808C20.8253 4.98836 19.6705 3.7901 18.3224 2.4452L15.8713 0H15.4962H15.121L8.01357 7.10814ZM8.89579 8.58663L2.29396 15.2019L2.0211 17.1354C1.87103 18.1987 1.74839 19.1055 1.74854 19.1504C1.74877 19.2036 2.45653 19.1306 3.77522 18.9413L5.8016 18.6506L12.3731 12.074C15.9874 8.45675 18.9447 5.47118 18.9447 5.43926C18.9447 5.37072 15.6108 1.97132 15.5436 1.97132C15.5183 1.97132 12.5268 4.94817 8.89579 8.58663Z" fill="black"/>
</svg>
