<svg width="30" height="30" viewBox="0 0 30 30" fill="none" xmlns="http://www.w3.org/2000/svg">
<path fill-rule="evenodd" clip-rule="evenodd" d="M13.3813 0.0467147C11.9958 0.201724 10.1497 0.698102 8.94987 1.2382C7.13228 2.05637 5.77525 3.00018 4.33257 4.44956C2.04312 6.74965 0.65952 9.49088 0.115771 12.8038C-0.0385902 13.7445 -0.0385902 16.2473 0.115771 17.188C0.54417 19.7983 1.48314 22.0125 3.04983 24.1072C3.61528 24.8632 5.12781 26.3744 5.88447 26.9394C8.21726 28.6812 10.7282 29.6638 13.5874 29.9537C14.4784 30.044 16.3526 29.9964 17.2276 29.8613C19.7311 29.4747 22.0308 28.5003 24.1274 26.9377C24.876 26.3799 26.3903 24.8652 26.9573 24.1072C28.5295 22.005 29.492 19.7263 29.8923 17.158C29.9741 16.6337 30 16.113 30 14.9959C30 13.8788 29.9741 13.3581 29.8923 12.8338C29.3677 9.46763 27.8609 6.54095 25.4545 4.21347C23.196 2.02917 20.5354 0.691436 17.3812 0.154398C16.5443 0.0119412 14.2453 -0.0499785 13.3813 0.0467147ZM10.6156 5.87365C8.06301 6.14649 6.4421 7.53425 5.88826 9.92101C5.78487 10.3665 5.77675 10.7333 5.77675 14.9659C5.77675 20.0125 5.77417 19.9734 6.17408 21.0094C6.75389 22.5117 8.02875 23.5749 9.72005 23.9668C10.5084 24.1495 11.3628 24.1848 15.0035 24.1848C18.6443 24.1848 19.4986 24.1495 20.287 23.9668C22.1969 23.5243 23.5076 22.29 24.0098 20.4612C24.2552 19.5677 24.2687 19.237 24.2454 14.6956C24.2254 10.7803 24.2123 10.296 24.1162 9.89098C23.8535 8.78393 23.3729 7.91303 22.6582 7.24843C22.1485 6.77458 21.7163 6.51134 21.0167 6.24877C19.9641 5.85371 19.9282 5.85113 15.3041 5.83425C13.0064 5.8259 10.8966 5.84362 10.6156 5.87365ZM11.4871 7.54794C10.2889 7.60163 9.91691 7.67707 9.2524 8.0012C8.49947 8.36845 7.92482 9.06939 7.63311 9.97638C7.49017 10.4208 7.47184 10.5979 7.4154 12.0831C7.3289 14.3568 7.43109 19.3163 7.57505 19.8306C7.97339 21.2539 8.89661 22.0873 10.3751 22.358C10.9982 22.4721 16.0502 22.5347 18.0691 22.4535C19.6805 22.3885 20.0214 22.3349 20.6519 22.0472C21.4506 21.6827 22.0597 20.9693 22.3798 20.0236L22.5467 19.5303L22.5646 15.1996C22.5795 11.5967 22.5678 10.7993 22.4953 10.455C22.2228 9.16038 21.5062 8.25452 20.4338 7.84907C19.7026 7.57263 19.3757 7.54926 15.8751 7.52368C14.0568 7.51035 12.0822 7.52128 11.4871 7.54794ZM19.5719 9.23773C19.2123 9.38103 18.9708 9.74528 18.9708 10.1442C18.9708 10.7161 19.4042 11.1156 19.9801 11.0745C20.1711 11.0608 20.3632 11.0045 20.4609 10.9333C20.6545 10.7925 20.8943 10.3487 20.8943 10.1312C20.8943 10.0461 20.8334 9.85591 20.759 9.70853C20.5438 9.28211 20.0009 9.06681 19.5719 9.23773ZM14.2822 10.169C12.2867 10.5545 10.8423 11.8418 10.3012 13.7172C10.1077 14.3879 10.1078 15.604 10.3014 16.2751C10.7855 17.9533 12.0436 19.2103 13.7233 19.694C14.1062 19.8044 14.3408 19.8291 15.0035 19.8289C15.9859 19.8286 16.3421 19.7456 17.2276 19.3106C17.7828 19.0379 17.9281 18.9313 18.4353 18.4247C18.9423 17.918 19.049 17.7727 19.322 17.218C19.7573 16.3333 19.8404 15.9774 19.8407 14.9959C19.8408 14.3337 19.8161 14.0993 19.7057 13.7167C19.229 12.0642 17.9522 10.7773 16.326 10.3102C15.8838 10.1833 14.6499 10.098 14.2822 10.169ZM14.3423 11.9067C13.1338 12.1675 12.1661 13.145 11.9086 14.3653C11.7974 14.8922 11.7974 15.0996 11.9086 15.6265C12.2458 17.2242 13.8085 18.357 15.3656 18.1325C15.9827 18.0435 16.4456 17.8592 16.8859 17.5269C17.8639 16.7889 18.3447 15.5703 18.1094 14.4254C17.843 13.1288 16.9028 12.1708 15.6347 11.9036C15.1235 11.7959 14.8529 11.7965 14.3423 11.9067Z" fill="#FFFDF9"/>
</svg>
