<svg width="287" height="93" viewBox="0 0 287 93" fill="none" xmlns="http://www.w3.org/2000/svg">
<path d="M50.8802 70.08C49.9842 70.912 49.3762 72.224 49.0562 74.016C48.8002 75.808 48.6722 78.464 48.6722 81.984V91.776H0.000156522V89.376C1.21616 89.76 2.33616 89.952 3.36016 89.952C4.57616 89.952 5.50416 89.632 6.14416 88.992C6.84816 88.288 7.20016 87.296 7.20016 86.016V26.496C7.20016 25.216 6.84816 24.256 6.14416 23.616C5.50416 22.912 4.57616 22.56 3.36016 22.56C2.33616 22.56 1.21616 22.752 0.000156522 23.136V20.736H44.6402L44.3522 23.52C44.1602 24.736 44.0642 26.304 44.0642 28.224C44.0642 32 44.5122 34.944 45.4082 37.056H43.8722C43.1682 35.712 42.6562 33.952 42.3362 31.776C41.8882 29.472 41.2802 27.68 40.5122 26.4C39.7442 25.056 38.1762 23.936 35.8082 23.04C33.4402 22.144 29.8882 21.696 25.1522 21.696C21.7602 21.696 19.2962 22.272 17.7602 23.424C16.2242 24.576 15.2962 25.824 14.9762 27.168C14.7202 28.448 14.5282 30.304 14.4002 32.736V50.976H27.6482C29.5042 50.976 30.7842 50.944 31.4882 50.88C32.2562 50.752 32.8322 50.464 33.2162 50.016C33.6002 49.568 33.7922 48.8 33.7922 47.712C33.7922 45.792 33.6642 44.352 33.4082 43.392C33.2162 42.432 32.5762 41.952 31.4882 41.952V40.704H35.2322V62.976H31.4882V61.632C32.5762 61.632 33.2162 61.12 33.4082 60.096C33.6642 59.008 33.7922 57.472 33.7922 55.488C33.7922 54.464 33.3442 53.792 32.4482 53.472C31.6162 53.088 30.0162 52.864 27.6482 52.8H14.4002V79.776C14.5282 81.952 14.7842 83.776 15.1682 85.248C15.5522 86.656 16.5442 87.936 18.1442 89.088C19.8082 90.24 22.3362 90.816 25.7282 90.816C31.2322 90.816 35.4242 90.24 38.3042 89.088C41.1842 87.872 43.1362 86.4 44.1602 84.672C45.1842 82.88 46.0802 80.48 46.8482 77.472C47.6162 74.208 48.5122 71.744 49.5362 70.08H50.8802ZM18.9122 13.728C21.0882 10.656 23.0722 7.328 24.8642 3.744C24.9922 3.552 25.2162 3.104 25.5362 2.4C25.9202 1.632 26.3362 1.056 26.7842 0.671995C27.2962 0.223997 27.8722 -1.90735e-06 28.5122 -1.90735e-06C29.6642 -1.90735e-06 30.2402 0.639997 30.2402 1.92C30.2402 2.56 30.0162 3.392 29.5682 4.416C28.6722 6.208 27.6162 7.68 26.4002 8.832C25.1842 9.984 23.8722 11.072 22.4642 12.096C21.0562 13.056 20.0962 13.728 19.5842 14.112L18.9122 13.728ZM65.6492 92.736C63.2812 92.736 61.7452 91.84 61.0412 90.048C60.4012 88.192 60.0812 85.504 60.0812 81.984V77.376V48.288H53.7452V46.848H60.0812V36.576C61.4252 36.576 62.4172 36.128 63.0572 35.232C63.7612 34.336 64.1132 33.408 64.1132 32.448H66.1292L66.0332 46.848H73.9052V48.288H66.0332L65.9372 82.08C65.9372 84.64 66.1612 86.496 66.6092 87.648C67.1212 88.736 67.9212 89.28 69.0092 89.28C70.2892 89.28 71.3452 88.704 72.1772 87.552C73.0092 86.4 73.6172 85.12 74.0012 83.712C74.4492 82.24 74.6732 81.088 74.6732 80.256H75.6332C75.6332 82.048 75.2172 83.936 74.3852 85.92C73.5532 87.84 72.3692 89.472 70.8332 90.816C69.3612 92.096 67.6332 92.736 65.6492 92.736ZM99.5192 92.736C93.4392 92.736 88.8952 90.72 85.8872 86.688C82.8792 82.592 81.3752 76.64 81.3752 68.832C81.3752 64.736 82.0152 60.896 83.2952 57.312C84.5752 53.664 86.5592 50.72 89.2472 48.48C91.9992 46.176 95.3592 45.024 99.3272 45.024C105.791 45.024 110.399 47.008 113.151 50.976C115.903 54.88 117.279 59.584 117.279 65.088C117.279 66.048 117.215 67.296 117.087 68.832L116.991 69.696H88.0952C88.3512 84.032 92.3512 91.2 100.095 91.2C103.551 91.2 106.111 90.144 107.775 88.032C109.439 85.92 110.271 83.52 110.271 80.832C110.271 79.744 109.983 78.944 109.407 78.432C108.895 77.92 108.223 77.664 107.391 77.664C106.751 77.664 106.175 77.856 105.663 78.24C105.215 78.56 104.991 78.976 104.991 79.488H104.127V76.896H116.319C116.511 79.328 115.903 81.76 114.495 84.192C113.151 86.624 111.167 88.64 108.543 90.24C105.919 91.84 102.911 92.672 99.5192 92.736ZM108.063 68.256C109.215 68.256 109.887 68.16 110.079 67.968C110.335 67.712 110.495 67.136 110.559 66.24C110.623 65.536 110.655 64.48 110.655 63.072C110.655 58.208 109.759 54.176 107.967 50.976C106.175 47.776 103.167 46.176 98.9432 46.176C94.8472 46.176 92.0312 48.192 90.4952 52.224C88.9592 56.256 88.1592 61.6 88.0952 68.256H108.063ZM148.308 53.088C148.308 53.856 148.18 54.72 147.924 55.68C147.668 56.64 147.508 57.216 147.444 57.408C146.932 59.072 146.676 60.192 146.676 60.768C146.676 62.048 147.604 62.688 149.46 62.688V63.648C146.836 63.648 144.948 62.976 143.796 61.632C142.708 60.288 142.164 58.56 142.164 56.448C142.164 55.424 142.26 54.432 142.452 53.472C142.836 51.616 143.028 50.176 143.028 49.152C143.028 48.064 142.804 47.328 142.356 46.944C141.972 46.496 141.332 46.272 140.436 46.272C138.58 46.272 137.14 48.256 136.116 52.224C135.092 56.128 134.58 60.704 134.58 65.952V86.016C134.58 87.68 134.708 88.896 134.964 89.664C135.284 90.432 135.956 90.816 136.98 90.816C137.492 90.816 138.292 90.656 139.38 90.336V91.776H123.54V90.336C124.628 90.656 125.428 90.816 125.94 90.816C127.092 90.816 127.828 90.432 128.148 89.664C128.468 88.832 128.628 87.616 128.628 86.016V51.84C127.668 52.16 126.644 52.32 125.556 52.32C125.108 52.32 124.436 52.256 123.54 52.128V49.536H124.404C124.404 49.984 124.628 50.368 125.076 50.688C125.588 51.008 126.164 51.168 126.804 51.168C127.764 51.168 128.596 50.816 129.3 50.112C130.004 49.408 130.836 48.352 131.796 46.944H132.756L132.852 54.72H133.812C134.58 51.392 135.636 48.96 136.98 47.424C138.388 45.824 139.86 45.024 141.396 45.024C143.636 45.024 145.332 45.856 146.484 47.52C147.7 49.184 148.308 51.04 148.308 53.088ZM192.427 86.016C192.427 87.616 192.587 88.832 192.907 89.664C193.227 90.432 193.963 90.816 195.115 90.816C195.627 90.816 196.427 90.656 197.515 90.336V91.776H181.195V90.336C182.283 90.656 183.083 90.816 183.595 90.816C184.619 90.816 185.259 90.432 185.515 89.664C185.835 88.896 185.995 87.68 185.995 86.016V60.288C185.995 55.872 185.067 52.416 183.211 49.92C181.419 47.424 179.051 46.176 176.107 46.176C173.291 46.176 171.019 47.296 169.291 49.536C167.627 51.712 166.443 54.304 165.739 57.312C165.099 60.32 164.779 63.2 164.779 65.952V86.016C164.779 87.68 164.907 88.896 165.163 89.664C165.483 90.432 166.155 90.816 167.179 90.816C167.691 90.816 168.491 90.656 169.579 90.336V91.776H153.259V90.336C154.347 90.656 155.147 90.816 155.659 90.816C156.811 90.816 157.547 90.432 157.867 89.664C158.187 88.832 158.347 87.616 158.347 86.016V51.936C157.387 52.256 156.363 52.416 155.275 52.416C154.827 52.416 154.155 52.352 153.259 52.224V49.632H154.123C154.123 50.08 154.347 50.464 154.795 50.784C155.307 51.104 155.883 51.264 156.523 51.264C157.419 51.264 158.219 50.912 158.923 50.208C159.627 49.504 160.491 48.416 161.515 46.944H163.243L163.339 54.72H164.683C165.835 51.84 167.403 49.504 169.387 47.712C171.435 45.856 173.963 44.928 176.971 44.928C179.403 44.928 181.803 45.568 184.171 46.848C186.603 48.064 188.587 49.856 190.123 52.224C191.659 54.528 192.427 57.216 192.427 60.288V86.016ZM211.698 40.704C210.546 40.704 209.586 40.352 208.818 39.648C208.05 38.944 207.666 38.048 207.666 36.96C207.666 35.872 208.05 34.976 208.818 34.272C209.586 33.568 210.546 33.216 211.698 33.216C212.85 33.216 213.81 33.6 214.578 34.368C215.41 35.072 215.826 35.936 215.826 36.96C215.826 38.048 215.442 38.944 214.674 39.648C213.906 40.352 212.914 40.704 211.698 40.704ZM203.25 90.336C204.338 90.656 205.138 90.816 205.65 90.816C206.802 90.816 207.538 90.432 207.858 89.664C208.178 88.832 208.338 87.616 208.338 86.016V51.84C207.378 52.16 206.354 52.32 205.266 52.32C204.818 52.32 204.146 52.256 203.25 52.128V49.536H204.114C204.114 49.984 204.338 50.368 204.786 50.688C205.298 51.008 205.874 51.168 206.514 51.168C207.41 51.168 208.21 50.816 208.914 50.112C209.618 49.408 210.482 48.32 211.506 46.848H214.29V86.016C214.29 87.68 214.418 88.896 214.674 89.664C214.994 90.432 215.666 90.816 216.69 90.816C217.202 90.816 218.002 90.656 219.09 90.336V91.776H203.25V90.336ZM234.868 92.736C232.5 92.736 230.964 91.84 230.26 90.048C229.62 88.192 229.3 85.504 229.3 81.984V77.376V48.288H222.964V46.848H229.3V36.576C230.644 36.576 231.636 36.128 232.276 35.232C232.98 34.336 233.332 33.408 233.332 32.448H235.348L235.252 46.848H243.124V48.288H235.252L235.156 82.08C235.156 84.64 235.38 86.496 235.828 87.648C236.34 88.736 237.14 89.28 238.228 89.28C239.508 89.28 240.564 88.704 241.396 87.552C242.228 86.4 242.836 85.12 243.22 83.712C243.668 82.24 243.892 81.088 243.892 80.256H244.852C244.852 82.048 244.436 83.936 243.604 85.92C242.772 87.84 241.588 89.472 240.052 90.816C238.58 92.096 236.852 92.736 234.868 92.736ZM268.738 92.736C262.658 92.736 258.114 90.72 255.106 86.688C252.098 82.592 250.594 76.64 250.594 68.832C250.594 64.736 251.234 60.896 252.514 57.312C253.794 53.664 255.778 50.72 258.466 48.48C261.218 46.176 264.578 45.024 268.546 45.024C275.01 45.024 279.618 47.008 282.37 50.976C285.122 54.88 286.498 59.584 286.498 65.088C286.498 66.048 286.434 67.296 286.306 68.832L286.21 69.696H257.314C257.57 84.032 261.57 91.2 269.314 91.2C272.77 91.2 275.33 90.144 276.994 88.032C278.658 85.92 279.49 83.52 279.49 80.832C279.49 79.744 279.202 78.944 278.626 78.432C278.114 77.92 277.442 77.664 276.61 77.664C275.97 77.664 275.394 77.856 274.882 78.24C274.434 78.56 274.21 78.976 274.21 79.488H273.346V76.896H285.538C285.73 79.328 285.122 81.76 283.714 84.192C282.37 86.624 280.386 88.64 277.762 90.24C275.138 91.84 272.13 92.672 268.738 92.736ZM277.282 68.256C278.434 68.256 279.106 68.16 279.298 67.968C279.554 67.712 279.714 67.136 279.778 66.24C279.842 65.536 279.874 64.48 279.874 63.072C279.874 58.208 278.978 54.176 277.186 50.976C275.394 47.776 272.386 46.176 268.162 46.176C264.066 46.176 261.25 48.192 259.714 52.224C258.178 56.256 257.378 61.6 257.314 68.256H277.282ZM264.322 39.936C266.498 36.864 268.482 33.536 270.274 29.952C270.402 29.76 270.626 29.312 270.946 28.608C271.33 27.84 271.746 27.264 272.194 26.88C272.706 26.432 273.282 26.208 273.922 26.208C275.074 26.208 275.65 26.848 275.65 28.128C275.65 28.768 275.426 29.6 274.978 30.624C274.082 32.416 273.026 33.888 271.81 35.04C270.594 36.192 269.282 37.28 267.874 38.304C266.466 39.264 265.506 39.936 264.994 40.32L264.322 39.936Z" fill="#FFFDF9"/>
</svg>
