<svg width="30" height="30" viewBox="0 0 30 30" fill="none" xmlns="http://www.w3.org/2000/svg">
<path fill-rule="evenodd" clip-rule="evenodd" d="M13.2182 0.0786123C7.80958 0.737214 3.213 4.23182 1.11722 9.27859C-0.372405 12.8656 -0.372405 17.1224 1.11722 20.7094C2.94003 25.0989 6.69485 28.3617 11.2885 29.5481C13.6532 30.1588 16.3397 30.1502 18.7442 29.5242C24.1457 28.1178 28.3981 23.7071 29.5949 18.2695C29.7371 17.6231 29.8839 16.6443 29.8839 16.3423C29.8839 16.2131 29.9102 16.1075 29.9424 16.1075C29.9795 16.1075 30.0005 15.6734 30 14.9207C29.9994 14.1328 29.98 13.7635 29.9424 13.8219C29.9009 13.8862 29.8855 13.843 29.8848 13.6603C29.8838 13.3713 29.7518 12.4536 29.6231 11.8405C29.1935 9.79378 28.2431 7.7088 26.9593 5.997C24.4675 2.67446 20.7949 0.56052 16.6754 0.0775574C15.7897 -0.0262905 14.0752 -0.0257631 13.2182 0.0786123ZM14.1538 6.87872C14.1056 6.88821 13.8688 6.92783 13.6275 6.9668C12.1868 7.19952 10.6532 8.00856 9.78432 8.99429C7.98875 11.0313 7.48591 13.6617 8.4917 15.7558C8.68046 16.1489 8.82496 16.347 9.17646 16.6949C9.80046 17.3126 10.2519 17.4947 10.494 17.2265C10.632 17.0737 10.7575 16.6307 10.7698 16.2527C10.7788 15.9779 10.7492 15.8877 10.5315 15.5268C10.3949 15.3001 10.2145 14.9095 10.1307 14.6588C9.99968 14.2672 9.97781 14.0994 9.97548 13.4702C9.97325 12.8605 9.99571 12.6644 10.1097 12.3007C10.6503 10.5753 11.9086 9.30308 13.5438 8.82856C13.9527 8.70988 14.1289 8.69447 15.031 8.6984C15.9717 8.70256 16.0966 8.7158 16.579 8.86314C17.3549 9.10002 17.7444 9.32899 18.2816 9.86387C18.824 10.404 19.0533 10.8143 19.249 11.5948C19.3596 12.0357 19.37 12.1971 19.34 13.0013C19.2536 15.3232 18.3612 17.2901 17.1213 17.892C16.637 18.1272 16.0295 18.2036 15.6142 18.0819C15.0259 17.9094 14.579 17.3746 14.4571 16.6973C14.4022 16.3926 14.4212 16.3043 14.8905 14.6754C15.4177 12.8456 15.4543 12.6018 15.2949 11.9882C15.1111 11.2811 14.7351 10.9307 14.1604 10.9308C13.513 10.931 12.8657 11.2833 12.4815 11.8446C11.9298 12.6506 11.8507 13.6451 12.2329 14.9711C12.2976 15.1952 12.2565 15.4106 11.6412 18.0771C10.7679 21.8616 10.7643 21.8789 10.7638 22.3196C10.7632 22.8831 10.8771 24.0816 10.943 24.2049C11.0938 24.4873 11.6923 24.1591 12.0694 23.5872C12.4135 23.0656 12.7926 22.3091 12.9838 21.7628C13.1538 21.2774 13.5267 19.8223 13.6847 19.0278L13.7508 18.6955L14.01 18.9553C14.6604 19.607 15.3971 19.9168 16.2968 19.9168C18.5707 19.9168 20.4005 18.5268 21.3735 16.0606C22.2951 13.7247 22.1371 11.3922 20.9357 9.59535C20.5807 9.06439 19.7551 8.27867 19.1708 7.91561C18.3547 7.4085 17.3559 7.05236 16.3467 6.90855C15.9815 6.8565 14.378 6.8347 14.1538 6.87872ZM0.0272791 14.994C0.0272791 15.6547 0.0358166 15.925 0.0462254 15.5947C0.0566341 15.2643 0.0566341 14.7236 0.0462254 14.3933C0.0358166 14.0629 0.0272791 14.3332 0.0272791 14.994Z" fill="#FFFDF9"/>
</svg>
