<svg width="30" height="30" viewBox="0 0 30 30" fill="none" xmlns="http://www.w3.org/2000/svg">
<path fill-rule="evenodd" clip-rule="evenodd" d="M13.2189 0.0785272C8.28093 0.679181 3.99819 3.64189 1.6941 8.05104C-0.719387 12.6695 -0.543215 18.3181 2.15286 22.764C4.40304 26.4747 8.18668 29.0685 12.4075 29.7941C14.2248 30.1065 16.4083 30.0609 18.155 29.6741C23.3617 28.5208 27.5301 24.7488 29.2033 19.6765C29.4979 18.7836 29.8004 17.3913 29.8607 16.6514C29.8824 16.3843 29.9226 16.152 29.9501 16.135C29.9775 16.1179 30 15.5765 30 14.9317C30 14.2869 29.9774 13.7733 29.9498 13.7905C29.9222 13.8075 29.8817 13.6061 29.8597 13.3426C29.8036 12.6677 29.5602 11.4624 29.3189 10.6642C27.5819 4.91793 22.639 0.781117 16.6691 0.0772376C15.791 -0.026281 14.0752 -0.0256362 13.2189 0.0785272ZM9.35989 9.4632C8.81471 9.60828 8.41535 9.8394 8.00863 10.2453C7.60261 10.6504 7.3889 11.0054 7.23226 11.5348C7.15069 11.8103 7.13801 12.2766 7.13801 14.9972C7.13801 18.4116 7.13736 18.4037 7.47433 19.0708C7.67371 19.4655 8.31777 20.0975 8.71671 20.29C9.42777 20.6329 9.27019 20.6245 14.9532 20.6245C18.5367 20.6245 20.2682 20.6042 20.481 20.5597C21.2593 20.397 22.1313 19.7448 22.4718 19.0708C22.8088 18.4037 22.8081 18.4116 22.8081 14.9972C22.8081 11.5828 22.8088 11.5908 22.4718 10.9237C22.2724 10.529 21.6284 9.89697 21.2294 9.70447C20.5171 9.36085 20.6827 9.36958 14.9462 9.37381C10.5255 9.37703 9.6299 9.39139 9.35989 9.4632ZM12.8681 14.9972C12.8681 17.26 12.8745 17.4106 12.9689 17.3743C13.1537 17.3032 17.0195 15.0407 17.0195 15.0037C17.0195 14.9662 13.154 12.6912 12.9704 12.6207C12.874 12.5836 12.8681 12.7205 12.8681 14.9972ZM0.02927 14.9972C0.02927 15.6581 0.0378067 15.9285 0.0482144 15.5981C0.0586222 15.2676 0.0586222 14.7268 0.0482144 14.3964C0.0378067 14.066 0.02927 14.3363 0.02927 14.9972Z" fill="#FFFDF9"/>
</svg>
